<svg width="22" height="22" viewBox="0 0 22 22" fill="none" xmlns="http://www.w3.org/2000/svg">
<path id="Vector" d="M9.37889 1.85556L10.4524 0.782015C10.907 0.327453 11.642 0.327453 12.0918 0.782015L21.4925 10.1779C21.9471 10.6325 21.9471 11.3675 21.4925 11.8172L12.0918 21.218C11.6372 21.6725 10.9022 21.6725 10.4524 21.218L9.37889 20.1444C8.91949 19.685 8.92916 18.9355 9.39823 18.4858L15.2253 12.9343H1.32733C0.684175 12.9343 0.166748 12.4169 0.166748 11.7737V10.2263C0.166748 9.58312 0.684175 9.06569 1.32733 9.06569H15.2253L9.39823 3.51422C8.92433 3.0645 8.91466 2.31495 9.37889 1.85556Z" fill="white"/>
</svg>
